<svg width="200" height="200" viewBox="0 0 200 200" fill="none" xmlns="http://www.w3.org/2000/svg">
<rect x="79.7301" y="30" width="10" height="40" transform="rotate(-90 79.7301 30)" fill="black"/>
<rect x="59.7301" y="40" width="10" height="20" transform="rotate(-90 59.7301 40)" fill="black"/>
<rect x="59.7301" y="170" width="10" height="20" transform="rotate(-90 59.7301 170)" fill="black"/>
<rect x="39.7301" y="160" width="10" height="20" transform="rotate(-90 39.7301 160)" fill="black"/>
<rect x="39.7301" y="50" width="10" height="20" transform="rotate(-90 39.7301 50)" fill="black"/>
<rect x="139.73" y="160" width="10" height="20" transform="rotate(-90 139.73 160)" fill="black"/>
<rect x="139.73" y="50" width="10" height="20" transform="rotate(-90 139.73 50)" fill="black"/>
<rect x="119.73" y="40" width="10" height="20" transform="rotate(-90 119.73 40)" fill="black"/>
<rect x="99.7301" y="40" width="10" height="10" transform="rotate(-90 99.7301 40)" fill="black"/>
<rect x="109.73" y="50" width="10" height="10" transform="rotate(-90 109.73 50)" fill="black"/>
<rect x="89.7301" y="40" width="10" height="10" transform="rotate(-90 89.7301 40)" fill="black"/>
<rect x="79.7301" y="50" width="10" height="10" transform="rotate(-90 79.7301 50)" fill="black"/>
<rect x="89.7301" y="170" width="10" height="10" transform="rotate(-90 89.7301 170)" fill="black"/>
<rect x="99.7301" y="170" width="10" height="10" transform="rotate(-90 99.7301 170)" fill="black"/>
<rect x="109.73" y="160" width="10" height="10" transform="rotate(-90 109.73 160)" fill="black"/>
<rect x="159.73" y="150" width="10" height="10" transform="rotate(-90 159.73 150)" fill="black"/>
<rect x="29.7301" y="150" width="10" height="10" transform="rotate(-90 29.7301 150)" fill="black"/>
<rect x="69.7301" y="150" width="10" height="10" transform="rotate(-90 69.7301 150)" fill="black"/>
<rect x="119.73" y="150" width="10" height="10" transform="rotate(-90 119.73 150)" fill="black"/>
<rect x="159.73" y="60" width="10" height="10" transform="rotate(-90 159.73 60)" fill="black"/>
<rect x="119.73" y="60" width="10" height="10" transform="rotate(-90 119.73 60)" fill="black"/>
<rect x="69.7301" y="60" width="10" height="10" transform="rotate(-90 69.7301 60)" fill="black"/>
<rect x="29.7301" y="60" width="10" height="10" transform="rotate(-90 29.7301 60)" fill="black"/>
<rect x="79.7301" y="160" width="10" height="10" transform="rotate(-90 79.7301 160)" fill="black"/>
<rect x="119.73" y="170" width="10" height="20" transform="rotate(-90 119.73 170)" fill="black"/>
<rect x="79.7301" y="180" width="10" height="40" transform="rotate(-90 79.7301 180)" fill="black"/>
<path d="M11.2301 95V75H16.2301V95H11.2301ZM56.2301 95H51.2301V75H56.2301V95ZM21.2301 125V110H26.2301V125H21.2301ZM21.2301 110H16.2301V95H21.2301V110ZM31.2301 100V110H26.2301V100H31.2301ZM31.2301 90H36.2301V100H31.2301V90ZM41.2301 125V110H46.2301V125H41.2301ZM41.2301 110H36.2301V100H41.2301V110ZM51.2301 110H46.2301V95H51.2301V110ZM77.2301 95V75H82.2301V95H77.2301ZM122.23 95H117.23V75H122.23V95ZM87.2301 125V110H92.2301V125H87.2301ZM87.2301 110H82.2301V95H87.2301V110ZM97.2301 100V110H92.2301V100H97.2301ZM97.2301 90H102.23V100H97.2301V90ZM107.23 125V110H112.23V125H107.23ZM107.23 110H102.23V100H107.23V110ZM117.23 110H112.23V95H117.23V110ZM143.23 95V75H148.23V95H143.23ZM188.23 95H183.23V75H188.23V95ZM153.23 125V110H158.23V125H153.23ZM153.23 110H148.23V95H153.23V110ZM163.23 100V110H158.23V100H163.23ZM163.23 90H168.23V100H163.23V90ZM173.23 125V110H178.23V125H173.23ZM173.23 110H168.23V100H173.23V110ZM183.23 110H178.23V95H183.23V110Z" fill="black"/>
</svg>
